<svg width="59" height="59" viewBox="0 0 59 59" fill="none" xmlns="http://www.w3.org/2000/svg">
<path d="M13.2268 44.7096V25.0692L9.45932 27.9498L7 24.6502L29.9711 7L52.9945 24.5978L50.4829 27.9498L29.9711 12.2374L17.4129 21.8743V40.5196H25.785V44.7096H13.2268ZM41.4828 49.6852C40.0177 50.6977 38.4043 51.1255 36.6427 50.9683C34.881 50.8112 33.3723 50.1042 32.1165 48.8472C30.8606 47.5902 30.1542 46.0801 29.9973 44.3168C29.8403 42.5535 30.2676 40.9386 31.2793 39.4722C30.2676 38.0057 29.8403 36.3908 29.9973 34.6275C30.1542 32.8642 30.8606 31.3541 32.1165 30.0971C33.3723 28.8401 34.881 28.1331 36.6427 27.976C38.4043 27.8188 40.0177 28.2466 41.4828 29.2591C42.9479 28.2466 44.5613 27.8188 46.323 27.976C48.0846 28.1331 49.5933 28.8401 50.8492 30.0971C52.105 31.3541 52.8114 32.8642 52.9684 34.6275C53.1253 36.3908 52.698 38.0057 51.6864 39.4722C52.698 40.9386 53.1253 42.5535 52.9684 44.3168C52.8114 46.0801 52.105 47.5902 50.8492 48.8472C49.5933 50.1042 48.0846 50.8112 46.323 50.9683C44.5613 51.1255 42.9479 50.6977 41.4828 49.6852ZM41.4828 44.5525L43.8898 46.2285C44.5177 46.6824 45.198 46.8744 45.9305 46.8046C46.6631 46.7347 47.3084 46.4205 47.8666 45.8618C48.4247 45.3032 48.7387 44.6572 48.8085 43.924C48.8782 43.1907 48.6864 42.5099 48.2329 41.8814L46.5584 39.4722L48.2329 37.0629C48.6864 36.4344 48.8782 35.7536 48.8085 35.0203C48.7387 34.2871 48.4247 33.6411 47.8666 33.0825C47.3084 32.5238 46.6631 32.2096 45.9305 32.1397C45.198 32.0699 44.5177 32.2619 43.8898 32.7158L41.4828 34.3918L39.0758 32.7158C38.4479 32.2619 37.7677 32.0699 37.0351 32.1397C36.3025 32.2096 35.6572 32.5238 35.099 33.0825C34.5409 33.6411 34.2269 34.2871 34.1572 35.0203C34.0874 35.7536 34.2793 36.4344 34.7328 37.0629L36.4072 39.4722L34.7328 41.8814C34.2793 42.5099 34.0874 43.1907 34.1572 43.924C34.2269 44.6572 34.5409 45.3032 35.099 45.8618C35.6572 46.4205 36.3025 46.7347 37.0351 46.8046C37.7677 46.8744 38.4479 46.6824 39.0758 46.2285L41.4828 44.5525ZM43.3404 41.3314C43.8462 40.8252 44.0991 40.2054 44.0991 39.4722C44.0991 38.7389 43.8462 38.1191 43.3404 37.6129C42.8346 37.1066 42.2154 36.8534 41.4828 36.8534C40.7503 36.8534 40.1311 37.1066 39.6252 37.6129C39.1194 38.1191 38.8665 38.7389 38.8665 39.4722C38.8665 40.2054 39.1194 40.8252 39.6252 41.3314C40.1311 41.8377 40.7503 42.0909 41.4828 42.0909C42.2154 42.0909 42.8346 41.8377 43.3404 41.3314Z" fill="#16A34A"/>
</svg>
