<svg width="56" height="56" viewBox="0 0 56 56" fill="none" xmlns="http://www.w3.org/2000/svg">
<path d="M0 22C0 14.268 6.26801 8 14 8H34C41.732 8 48 14.268 48 22V42C48 49.732 41.732 56 34 56H14C6.26801 56 0 49.732 0 42V22Z" fill="url(#paint0_linear_3_317)"/>
<path d="M34 32H31.52C31.083 31.9991 30.6577 32.1413 30.3091 32.405C29.9606 32.6686 29.708 33.0392 29.59 33.46L27.24 41.82C27.2249 41.8719 27.1933 41.9175 27.15 41.95C27.1067 41.9825 27.0541 42 27 42C26.9459 42 26.8933 41.9825 26.85 41.95C26.8067 41.9175 26.7751 41.8719 26.76 41.82L21.24 22.18C21.2249 22.1281 21.1933 22.0825 21.15 22.05C21.1067 22.0175 21.0541 22 21 22C20.9459 22 20.8933 22.0175 20.85 22.05C20.8067 22.0825 20.7751 22.1281 20.76 22.18L18.41 30.54C18.2925 30.9592 18.0414 31.3285 17.6949 31.592C17.3483 31.8555 16.9253 31.9988 16.49 32H14" stroke="white" stroke-width="2" stroke-linecap="round" stroke-linejoin="round"/>
<mask id="path-3-inside-1_3_317" fill="white">
<path d="M32 12C32 5.37258 37.3726 0 44 0C50.6274 0 56 5.37258 56 12C56 18.6274 50.6274 24 44 24C37.3726 24 32 18.6274 32 12Z"/>
</mask>
<path d="M32 12C32 5.37258 37.3726 0 44 0C50.6274 0 56 5.37258 56 12C56 18.6274 50.6274 24 44 24C37.3726 24 32 18.6274 32 12Z" fill="white"/>
<path d="M32 12M56 12M56 12M32 12M44 0M56 12M44 24M32 12M44 24V22C38.4772 22 34 17.5228 34 12H32H30C30 19.732 36.268 26 44 26V24ZM56 12H54C54 17.5228 49.5228 22 44 22V24V26C51.732 26 58 19.732 58 12H56ZM44 0V2C49.5228 2 54 6.47715 54 12H56H58C58 4.26801 51.732 -2 44 -2V0ZM44 0V-2C36.268 -2 30 4.26801 30 12H32H34C34 6.47715 38.4772 2 44 2V0Z" fill="#E5E7EB" mask="url(#path-3-inside-1_3_317)"/>
<path d="M45.3253 7.27273V16H43.7443V8.81108H43.6932L41.652 10.1151V8.66619L43.821 7.27273H45.3253Z" fill="#4A5565"/>
<defs>
<linearGradient id="paint0_linear_3_317" x1="0" y1="8" x2="48" y2="56" gradientUnits="userSpaceOnUse">
<stop stop-color="#2B7FFF"/>
<stop offset="1" stop-color="#00B8DB"/>
</linearGradient>
</defs>
</svg>
