<svg width="56" height="56" viewBox="0 0 56 56" fill="none" xmlns="http://www.w3.org/2000/svg">
<path d="M0 22C0 14.268 6.26801 8 14 8H34C41.732 8 48 14.268 48 22V42C48 49.732 41.732 56 34 56H14C6.26801 56 0 49.732 0 42V22Z" fill="url(#paint0_linear_11_149)"/>
<path d="M24 34L28 30" stroke="white" stroke-width="2" stroke-linecap="round" stroke-linejoin="round"/>
<path d="M15.34 39C14.4622 37.4798 14.0001 35.7553 14 33.9999C13.9999 32.2445 14.462 30.52 15.3396 28.9997C16.2173 27.4795 17.4797 26.217 18.9999 25.3393C20.5201 24.4616 22.2446 23.9995 24 23.9995C25.7554 23.9995 27.4799 24.4616 29.0001 25.3393C30.5203 26.217 31.7827 27.4795 32.6604 28.9997C33.538 30.52 34.0001 32.2445 34 33.9999C33.9999 35.7553 33.5378 37.4798 32.66 39" stroke="white" stroke-width="2" stroke-linecap="round" stroke-linejoin="round"/>
<mask id="path-4-inside-1_11_149" fill="white">
<path d="M32 12C32 5.37258 37.3726 0 44 0C50.6274 0 56 5.37258 56 12C56 18.6274 50.6274 24 44 24C37.3726 24 32 18.6274 32 12Z"/>
</mask>
<path d="M32 12C32 5.37258 37.3726 0 44 0C50.6274 0 56 5.37258 56 12C56 18.6274 50.6274 24 44 24C37.3726 24 32 18.6274 32 12Z" fill="white"/>
<path d="M32 12M56 12M56 12M32 12M44 0M56 12M44 24M32 12M44 24V22C38.4772 22 34 17.5228 34 12H32H30C30 19.732 36.268 26 44 26V24ZM56 12H54C54 17.5228 49.5228 22 44 22V24V26C51.732 26 58 19.732 58 12H56ZM44 0V2C49.5228 2 54 6.47715 54 12H56H58C58 4.26801 51.732 -2 44 -2V0ZM44 0V-2C36.268 -2 30 4.26801 30 12H32H34C34 6.47715 38.4772 2 44 2V0Z" fill="#E5E7EB" mask="url(#path-4-inside-1_11_149)"/>
<path d="M43.9077 16.1193C43.294 16.1193 42.7486 16.0142 42.2713 15.804C41.7969 15.5937 41.4219 15.3011 41.1463 14.9261C40.8707 14.5511 40.7244 14.1179 40.7074 13.6264H42.3097C42.3239 13.8622 42.402 14.0682 42.544 14.2443C42.6861 14.4176 42.875 14.5526 43.1108 14.6491C43.3466 14.7457 43.6108 14.794 43.9034 14.794C44.2159 14.794 44.4929 14.7401 44.7344 14.6321C44.9759 14.5213 45.1648 14.3679 45.3011 14.1719C45.4375 13.9759 45.5043 13.75 45.5014 13.4943C45.5043 13.2301 45.4361 12.9972 45.2969 12.7955C45.1577 12.5937 44.956 12.4361 44.6918 12.3224C44.4304 12.2088 44.1151 12.152 43.7457 12.152H42.9744V10.9332H43.7457C44.0497 10.9332 44.3153 10.8807 44.5426 10.7756C44.7727 10.6705 44.9531 10.5227 45.0838 10.3324C45.2145 10.1392 45.2784 9.91619 45.2756 9.66335C45.2784 9.41619 45.223 9.2017 45.1094 9.01989C44.9986 8.83523 44.8409 8.69176 44.6364 8.58949C44.4347 8.48722 44.1974 8.43608 43.9247 8.43608C43.6577 8.43608 43.4105 8.48437 43.1832 8.58097C42.956 8.67756 42.7727 8.81534 42.6335 8.99432C42.4943 9.17045 42.4205 9.38068 42.4119 9.625H40.8906C40.902 9.13636 41.0426 8.70739 41.3125 8.33807C41.5852 7.96591 41.9489 7.67614 42.4034 7.46875C42.858 7.25852 43.3679 7.15341 43.9332 7.15341C44.5156 7.15341 45.0213 7.26278 45.4503 7.48153C45.8821 7.69744 46.2159 7.98864 46.4517 8.35511C46.6875 8.72159 46.8054 9.12642 46.8054 9.5696C46.8082 10.0611 46.6634 10.473 46.3707 10.8054C46.081 11.1378 45.7003 11.3551 45.2287 11.4574V11.5256C45.8423 11.6108 46.3125 11.8381 46.6392 12.2074C46.9688 12.5739 47.1321 13.0298 47.1293 13.5753C47.1293 14.0639 46.9901 14.5014 46.7116 14.8878C46.4361 15.2713 46.0554 15.5724 45.5696 15.7912C45.0866 16.0099 44.5327 16.1193 43.9077 16.1193Z" fill="#4A5565"/>
<defs>
<linearGradient id="paint0_linear_11_149" x1="0" y1="8" x2="48" y2="56" gradientUnits="userSpaceOnUse">
<stop stop-color="#00C950"/>
<stop offset="1" stop-color="#00BC7D"/>
</linearGradient>
</defs>
</svg>
