<svg width="56" height="56" viewBox="0 0 56 56" fill="none" xmlns="http://www.w3.org/2000/svg">
<path d="M0 22C0 14.268 6.26801 8 14 8H34C41.732 8 48 14.268 48 22V42C48 49.732 41.732 56 34 56H14C6.26801 56 0 49.732 0 42V22Z" fill="url(#paint0_linear_11_157)"/>
<path d="M34 27L25.5 35.5L20.5 30.5L14 37" stroke="white" stroke-width="2" stroke-linecap="round" stroke-linejoin="round"/>
<path d="M28 27H34V33" stroke="white" stroke-width="2" stroke-linecap="round" stroke-linejoin="round"/>
<mask id="path-4-inside-1_11_157" fill="white">
<path d="M32 12C32 5.37258 37.3726 0 44 0C50.6274 0 56 5.37258 56 12C56 18.6274 50.6274 24 44 24C37.3726 24 32 18.6274 32 12Z"/>
</mask>
<path d="M32 12C32 5.37258 37.3726 0 44 0C50.6274 0 56 5.37258 56 12C56 18.6274 50.6274 24 44 24C37.3726 24 32 18.6274 32 12Z" fill="white"/>
<path d="M32 12M56 12M56 12M32 12M44 0M56 12M44 24M32 12M44 24V22C38.4772 22 34 17.5228 34 12H32H30C30 19.732 36.268 26 44 26V24ZM56 12H54C54 17.5228 49.5228 22 44 22V24V26C51.732 26 58 19.732 58 12H56ZM44 0V2C49.5228 2 54 6.47715 54 12H56H58C58 4.26801 51.732 -2 44 -2V0ZM44 0V-2C36.268 -2 30 4.26801 30 12H32H34C34 6.47715 38.4772 2 44 2V0Z" fill="#E5E7EB" mask="url(#path-4-inside-1_11_157)"/>
<path d="M43.8097 16.1193C43.2415 16.1193 42.733 16.0128 42.2841 15.7997C41.8352 15.5838 41.4787 15.2884 41.2145 14.9134C40.9531 14.5384 40.8139 14.1094 40.7969 13.6264H42.331C42.3594 13.9844 42.5142 14.277 42.7955 14.5043C43.0767 14.7287 43.4148 14.8409 43.8097 14.8409C44.1193 14.8409 44.3949 14.7699 44.6364 14.6278C44.8778 14.4858 45.0682 14.2884 45.2074 14.0355C45.3466 13.7827 45.4148 13.4943 45.4119 13.1705C45.4148 12.8409 45.3452 12.5483 45.2031 12.2926C45.0611 12.0369 44.8665 11.8366 44.6193 11.6918C44.3722 11.544 44.0881 11.4702 43.767 11.4702C43.5057 11.4673 43.2486 11.5156 42.9957 11.6151C42.7429 11.7145 42.5426 11.8452 42.3949 12.0071L40.9673 11.7727L41.4233 7.27273H46.4858V8.59375H42.7315L42.4801 10.9077H42.5312C42.6932 10.7173 42.9219 10.5597 43.2173 10.4347C43.5128 10.3068 43.8366 10.2429 44.1889 10.2429C44.7173 10.2429 45.1889 10.3679 45.6037 10.6179C46.0185 10.8651 46.3452 11.206 46.5838 11.6406C46.8224 12.0753 46.9418 12.5724 46.9418 13.1321C46.9418 13.7088 46.8082 14.223 46.5412 14.6747C46.277 15.1236 45.9091 15.4773 45.4375 15.7358C44.9688 15.9915 44.4261 16.1193 43.8097 16.1193Z" fill="#4A5565"/>
<defs>
<linearGradient id="paint0_linear_11_157" x1="0" y1="8" x2="48" y2="56" gradientUnits="userSpaceOnUse">
<stop stop-color="#615FFF"/>
<stop offset="1" stop-color="#2B7FFF"/>
</linearGradient>
</defs>
</svg>
