<svg width="56" height="56" viewBox="0 0 56 56" fill="none" xmlns="http://www.w3.org/2000/svg">
<path d="M0 22C0 14.268 6.26801 8 14 8H34C41.732 8 48 14.268 48 22V42C48 49.732 41.732 56 34 56H14C6.26801 56 0 49.732 0 42V22Z" fill="url(#paint0_linear_11_112)"/>
<path d="M22.2681 41C22.4436 41.304 22.6961 41.5565 23.0001 41.732C23.3041 41.9075 23.649 41.9999 24.0001 41.9999C24.3511 41.9999 24.696 41.9075 25 41.732C25.3041 41.5565 25.5565 41.304 25.7321 41" stroke="white" stroke-width="2" stroke-linecap="round" stroke-linejoin="round"/>
<path d="M15.262 35.326C15.1314 35.4692 15.0452 35.6472 15.0139 35.8385C14.9826 36.0298 15.0075 36.226 15.0857 36.4034C15.1639 36.5807 15.2919 36.7316 15.4543 36.8375C15.6166 36.9434 15.8062 36.9999 16 37H32C32.1938 37.0001 32.3834 36.9438 32.5459 36.8381C32.7083 36.7324 32.8365 36.5817 32.9149 36.4045C32.9933 36.2273 33.0185 36.0311 32.9874 35.8398C32.9564 35.6485 32.8704 35.4703 32.74 35.327C31.41 33.956 30 32.499 30 28C30 26.4087 29.3679 24.8826 28.2426 23.7574C27.1174 22.6321 25.5913 22 24 22C22.4087 22 20.8826 22.6321 19.7574 23.7574C18.6321 24.8826 18 26.4087 18 28C18 32.499 16.589 33.956 15.262 35.326Z" stroke="white" stroke-width="2" stroke-linecap="round" stroke-linejoin="round"/>
<mask id="path-4-inside-1_11_112" fill="white">
<path d="M32 12C32 5.37258 37.3726 0 44 0C50.6274 0 56 5.37258 56 12C56 18.6274 50.6274 24 44 24C37.3726 24 32 18.6274 32 12Z"/>
</mask>
<path d="M32 12C32 5.37258 37.3726 0 44 0C50.6274 0 56 5.37258 56 12C56 18.6274 50.6274 24 44 24C37.3726 24 32 18.6274 32 12Z" fill="white"/>
<path d="M32 12M56 12M56 12M32 12M44 0M56 12M44 24M32 12M44 24V22C38.4772 22 34 17.5228 34 12H32H30C30 19.732 36.268 26 44 26V24ZM56 12H54C54 17.5228 49.5228 22 44 22V24V26C51.732 26 58 19.732 58 12H56ZM44 0V2C49.5228 2 54 6.47715 54 12H56H58C58 4.26801 51.732 -2 44 -2V0ZM44 0V-2C36.268 -2 30 4.26801 30 12H32H34C34 6.47715 38.4772 2 44 2V0Z" fill="#E5E7EB" mask="url(#path-4-inside-1_11_112)"/>
<path d="M40.6179 14.3807V13.1236L44.321 7.27273H45.3693V9.0625H44.7301L42.2372 13.0128V13.081H47.4062V14.3807H40.6179ZM44.7812 16V13.9972L44.7983 13.4347V7.27273H46.2898V16H44.7812Z" fill="#4A5565"/>
<mask id="path-7-inside-2_11_112" fill="white">
<path d="M32 12C32 5.37258 37.3726 0 44 0C50.6274 0 56 5.37258 56 12C56 18.6274 50.6274 24 44 24C37.3726 24 32 18.6274 32 12Z"/>
</mask>
<path d="M32 12C32 5.37258 37.3726 0 44 0C50.6274 0 56 5.37258 56 12C56 18.6274 50.6274 24 44 24C37.3726 24 32 18.6274 32 12Z" fill="white"/>
<path d="M32 12M56 12M56 12M32 12M44 0M56 12M44 24M32 12M44 24V22C38.4772 22 34 17.5228 34 12H32H30C30 19.732 36.268 26 44 26V24ZM56 12H54C54 17.5228 49.5228 22 44 22V24V26C51.732 26 58 19.732 58 12H56ZM44 0V2C49.5228 2 54 6.47715 54 12H56H58C58 4.26801 51.732 -2 44 -2V0ZM44 0V-2C36.268 -2 30 4.26801 30 12H32H34C34 6.47715 38.4772 2 44 2V0Z" fill="#E5E7EB" mask="url(#path-7-inside-2_11_112)"/>
<path d="M43.9077 16.1193C43.294 16.1193 42.7486 16.0142 42.2713 15.804C41.7969 15.5937 41.4219 15.3011 41.1463 14.9261C40.8707 14.5511 40.7244 14.1179 40.7074 13.6264H42.3097C42.3239 13.8622 42.402 14.0682 42.544 14.2443C42.6861 14.4176 42.875 14.5526 43.1108 14.6491C43.3466 14.7457 43.6108 14.794 43.9034 14.794C44.2159 14.794 44.4929 14.7401 44.7344 14.6321C44.9759 14.5213 45.1648 14.3679 45.3011 14.1719C45.4375 13.9759 45.5043 13.75 45.5014 13.4943C45.5043 13.2301 45.4361 12.9972 45.2969 12.7955C45.1577 12.5937 44.956 12.4361 44.6918 12.3224C44.4304 12.2088 44.1151 12.152 43.7457 12.152H42.9744V10.9332H43.7457C44.0497 10.9332 44.3153 10.8807 44.5426 10.7756C44.7727 10.6705 44.9531 10.5227 45.0838 10.3324C45.2145 10.1392 45.2784 9.91619 45.2756 9.66335C45.2784 9.41619 45.223 9.2017 45.1094 9.01989C44.9986 8.83523 44.8409 8.69176 44.6364 8.58949C44.4347 8.48722 44.1974 8.43608 43.9247 8.43608C43.6577 8.43608 43.4105 8.48437 43.1832 8.58097C42.956 8.67756 42.7727 8.81534 42.6335 8.99432C42.4943 9.17045 42.4205 9.38068 42.4119 9.625H40.8906C40.902 9.13636 41.0426 8.70739 41.3125 8.33807C41.5852 7.96591 41.9489 7.67614 42.4034 7.46875C42.858 7.25852 43.3679 7.15341 43.9332 7.15341C44.5156 7.15341 45.0213 7.26278 45.4503 7.48153C45.8821 7.69744 46.2159 7.98864 46.4517 8.35511C46.6875 8.72159 46.8054 9.12642 46.8054 9.5696C46.8082 10.0611 46.6634 10.473 46.3707 10.8054C46.081 11.1378 45.7003 11.3551 45.2287 11.4574V11.5256C45.8423 11.6108 46.3125 11.8381 46.6392 12.2074C46.9688 12.5739 47.1321 13.0298 47.1293 13.5753C47.1293 14.0639 46.9901 14.5014 46.7116 14.8878C46.4361 15.2713 46.0554 15.5724 45.5696 15.7912C45.0866 16.0099 44.5327 16.1193 43.9077 16.1193Z" fill="#4A5565"/>
<defs>
<linearGradient id="paint0_linear_11_112" x1="0" y1="8" x2="48" y2="56" gradientUnits="userSpaceOnUse">
<stop stop-color="#FF6900"/>
<stop offset="1" stop-color="#FB2C36"/>
</linearGradient>
</defs>
</svg>
