<svg width="56" height="56" viewBox="0 0 56 56" fill="none" xmlns="http://www.w3.org/2000/svg">
<path d="M0 22C0 14.268 6.26801 8 14 8H34C41.732 8 48 14.268 48 22V42C48 49.732 41.732 56 34 56H14C6.26801 56 0 49.732 0 42V22Z" fill="url(#paint0_linear_11_102)"/>
<path d="M24 40H24.01" stroke="white" stroke-width="2" stroke-linecap="round" stroke-linejoin="round"/>
<path d="M14 28.82C16.7501 26.3603 20.3103 25.0004 24 25.0004C27.6897 25.0004 31.2499 26.3603 34 28.82" stroke="white" stroke-width="2" stroke-linecap="round" stroke-linejoin="round"/>
<path d="M17 32.8591C18.8693 31.0268 21.3825 30.0005 24 30.0005C26.6175 30.0005 29.1307 31.0268 31 32.8591" stroke="white" stroke-width="2" stroke-linecap="round" stroke-linejoin="round"/>
<path d="M20.5 36.429C21.4346 35.5129 22.6912 34.9998 24 34.9998C25.3088 34.9998 26.5654 35.5129 27.5 36.429" stroke="white" stroke-width="2" stroke-linecap="round" stroke-linejoin="round"/>
<mask id="path-6-inside-1_11_102" fill="white">
<path d="M32 12C32 5.37258 37.3726 0 44 0C50.6274 0 56 5.37258 56 12C56 18.6274 50.6274 24 44 24C37.3726 24 32 18.6274 32 12Z"/>
</mask>
<path d="M32 12C32 5.37258 37.3726 0 44 0C50.6274 0 56 5.37258 56 12C56 18.6274 50.6274 24 44 24C37.3726 24 32 18.6274 32 12Z" fill="white"/>
<path d="M32 12M56 12M56 12M32 12M44 0M56 12M44 24M32 12M44 24V22C38.4772 22 34 17.5228 34 12H32H30C30 19.732 36.268 26 44 26V24ZM56 12H54C54 17.5228 49.5228 22 44 22V24V26C51.732 26 58 19.732 58 12H56ZM44 0V2C49.5228 2 54 6.47715 54 12H56H58C58 4.26801 51.732 -2 44 -2V0ZM44 0V-2C36.268 -2 30 4.26801 30 12H32H34C34 6.47715 38.4772 2 44 2V0Z" fill="#E5E7EB" mask="url(#path-6-inside-1_11_102)"/>
<path d="M40.7756 16V14.858L43.8054 11.8878C44.0952 11.5952 44.3366 11.3352 44.5298 11.108C44.723 10.8807 44.8679 10.6605 44.9645 10.4474C45.0611 10.2344 45.1094 10.0071 45.1094 9.76562C45.1094 9.49006 45.0469 9.25426 44.9219 9.05824C44.7969 8.85938 44.625 8.70597 44.4062 8.59801C44.1875 8.49006 43.9389 8.43608 43.6605 8.43608C43.3736 8.43608 43.1222 8.49574 42.9062 8.61506C42.6903 8.73153 42.5227 8.89773 42.4034 9.11364C42.2869 9.32955 42.2287 9.58665 42.2287 9.88494H40.7244C40.7244 9.33097 40.8509 8.84943 41.1037 8.44034C41.3565 8.03125 41.7045 7.71449 42.1477 7.49006C42.5938 7.26562 43.1051 7.15341 43.6818 7.15341C44.267 7.15341 44.7813 7.26278 45.2244 7.48153C45.6676 7.70028 46.0114 8 46.2557 8.38068C46.5028 8.76136 46.6264 9.19602 46.6264 9.68466C46.6264 10.0114 46.5639 10.3324 46.4389 10.6477C46.3139 10.9631 46.0938 11.3125 45.7784 11.696C45.4659 12.0795 45.027 12.544 44.4616 13.0895L42.9574 14.6193V14.679H46.7585V16H40.7756Z" fill="#4A5565"/>
<defs>
<linearGradient id="paint0_linear_11_102" x1="0" y1="8" x2="48" y2="56" gradientUnits="userSpaceOnUse">
<stop stop-color="#AD46FF"/>
<stop offset="1" stop-color="#F6339A"/>
</linearGradient>
</defs>
</svg>
