<svg width="56" height="56" viewBox="0 0 56 56" fill="none" xmlns="http://www.w3.org/2000/svg">
<path d="M0 22C0 14.268 6.26801 8 14 8H34C41.732 8 48 14.268 48 22V42C48 49.732 41.732 56 34 56H14C6.26801 56 0 49.732 0 42V22Z" fill="url(#paint0_linear_11_133)"/>
<path d="M24 22V42" stroke="white" stroke-width="2" stroke-linecap="round" stroke-linejoin="round"/>
<path d="M29 25H21.5C20.5717 25 19.6815 25.3687 19.0251 26.0251C18.3687 26.6815 18 27.5717 18 28.5C18 29.4283 18.3687 30.3185 19.0251 30.9749C19.6815 31.6313 20.5717 32 21.5 32H26.5C27.4283 32 28.3185 32.3687 28.9749 33.0251C29.6313 33.6815 30 34.5717 30 35.5C30 36.4283 29.6313 37.3185 28.9749 37.9749C28.3185 38.6313 27.4283 39 26.5 39H18" stroke="white" stroke-width="2" stroke-linecap="round" stroke-linejoin="round"/>
<mask id="path-4-inside-1_11_133" fill="white">
<path d="M32 12C32 5.37258 37.3726 0 44 0C50.6274 0 56 5.37258 56 12C56 18.6274 50.6274 24 44 24C37.3726 24 32 18.6274 32 12Z"/>
</mask>
<path d="M32 12C32 5.37258 37.3726 0 44 0C50.6274 0 56 5.37258 56 12C56 18.6274 50.6274 24 44 24C37.3726 24 32 18.6274 32 12Z" fill="white"/>
<path d="M32 12M56 12M56 12M32 12M44 0M56 12M44 24M32 12M44 24V22C38.4772 22 34 17.5228 34 12H32H30C30 19.732 36.268 26 44 26V24ZM56 12H54C54 17.5228 49.5228 22 44 22V24V26C51.732 26 58 19.732 58 12H56ZM44 0V2C49.5228 2 54 6.47715 54 12H56H58C58 4.26801 51.732 -2 44 -2V0ZM44 0V-2C36.268 -2 30 4.26801 30 12H32H34C34 6.47715 38.4772 2 44 2V0Z" fill="#E5E7EB" mask="url(#path-4-inside-1_11_133)"/>
<path d="M43.9716 16.1193C43.554 16.1165 43.1463 16.044 42.7486 15.902C42.3509 15.7571 41.9929 15.5227 41.6747 15.1989C41.3565 14.8722 41.1037 14.4389 40.9162 13.8991C40.7287 13.3565 40.6364 12.6847 40.6392 11.8835C40.6392 11.1364 40.7188 10.4702 40.8778 9.88494C41.0369 9.29972 41.2656 8.8054 41.5639 8.40199C41.8622 7.99574 42.2216 7.68608 42.642 7.47301C43.0653 7.25994 43.5384 7.15341 44.0611 7.15341C44.6094 7.15341 45.0952 7.26136 45.5185 7.47727C45.9446 7.69318 46.2884 7.98864 46.5497 8.36364C46.8111 8.7358 46.973 9.15625 47.0355 9.625H45.4801C45.4006 9.28977 45.2372 9.02273 44.9901 8.82386C44.7457 8.62216 44.4361 8.52131 44.0611 8.52131C43.456 8.52131 42.9901 8.78409 42.6634 9.30966C42.3395 9.83523 42.1761 10.5568 42.1733 11.4744H42.233C42.3722 11.2244 42.5526 11.0099 42.7741 10.831C42.9957 10.652 43.2457 10.5142 43.5241 10.4176C43.8054 10.3182 44.1023 10.2685 44.4148 10.2685C44.9261 10.2685 45.3849 10.3906 45.7912 10.6349C46.2003 10.8793 46.5241 11.2159 46.7628 11.6449C47.0014 12.071 47.1193 12.5597 47.1165 13.1108C47.1193 13.6847 46.9886 14.2003 46.7244 14.6577C46.4602 15.1122 46.0923 15.4702 45.6207 15.7315C45.1491 15.9929 44.5994 16.1222 43.9716 16.1193ZM43.9631 14.8409C44.2727 14.8409 44.5497 14.7656 44.794 14.6151C45.0384 14.4645 45.2315 14.2614 45.3736 14.0057C45.5156 13.75 45.5852 13.4631 45.5824 13.1449C45.5852 12.8324 45.517 12.5497 45.3778 12.2969C45.2415 12.044 45.0526 11.8437 44.8111 11.696C44.5696 11.5483 44.294 11.4744 43.9844 11.4744C43.7543 11.4744 43.5398 11.5185 43.3409 11.6065C43.142 11.6946 42.9688 11.8168 42.821 11.973C42.6733 12.1264 42.5568 12.3054 42.4716 12.5099C42.3892 12.7116 42.3466 12.9276 42.3438 13.1577C42.3466 13.4616 42.4176 13.7415 42.5568 13.9972C42.696 14.2528 42.8878 14.4574 43.1321 14.6108C43.3764 14.7642 43.6534 14.8409 43.9631 14.8409Z" fill="#4A5565"/>
<defs>
<linearGradient id="paint0_linear_11_133" x1="0" y1="8" x2="48" y2="56" gradientUnits="userSpaceOnUse">
<stop stop-color="#F0B100"/>
<stop offset="1" stop-color="#FE9A00"/>
</linearGradient>
</defs>
</svg>
